<svg id="svg" version="1.1" xmlns="http://www.w3.org/2000/svg" xmlns:xlink="http://www.w3.org/1999/xlink" width="400" height="400" viewBox="0, 0, 400,400"><g id="svgg"><path id="path0" d="M0.000 200.000 L 0.000 400.000 200.000 400.000 L 400.000 400.000 400.000 200.000 L 400.000 0.000 200.000 0.000 L 0.000 0.000 0.000 200.000 M168.833 200.000 L 168.833 250.167 168.083 250.273 L 167.333 250.380 167.333 200.000 L 167.333 149.620 168.083 149.727 L 168.833 149.833 168.833 200.000 M217.770 175.365 C 218.710 175.793,218.859 176.039,229.012 193.921 L 236.822 207.675 238.732 191.588 C 239.783 182.739,240.648 175.387,240.655 175.250 C 240.661 175.112,243.008 175.000,245.870 175.000 L 251.074 175.000 250.885 176.083 C 250.780 176.679,249.408 187.817,247.835 200.833 C 246.263 213.850,244.900 224.850,244.808 225.278 C 244.642 226.048,244.601 226.054,240.627 225.944 L 236.614 225.833 235.557 224.658 C 234.976 224.011,230.675 216.707,226.000 208.425 C 221.325 200.144,217.466 193.473,217.424 193.601 C 217.341 193.856,213.667 225.261,213.667 225.717 C 213.667 225.873,211.322 226.000,208.457 226.000 L 203.248 226.000 203.436 224.750 C 203.539 224.063,204.921 212.775,206.506 199.667 C 208.091 186.558,209.446 175.646,209.517 175.417 C 209.683 174.881,216.612 174.837,217.770 175.365 M270.280 185.083 C 269.593 190.629,269.024 195.279,269.015 195.417 C 268.984 195.921,271.861 195.647,272.833 195.054 C 273.420 194.695,276.553 190.644,280.414 185.250 C 288.368 174.140,287.184 174.935,295.568 175.073 L 301.303 175.167 293.133 185.833 C 285.357 195.986,284.039 197.572,282.801 198.265 C 282.349 198.518,282.502 198.796,283.769 200.033 C 285.069 201.300,292.433 216.403,296.242 225.610 C 296.391 225.972,295.259 226.033,290.072 225.943 C 282.070 225.805,283.136 226.767,277.981 215.038 C 273.329 204.453,273.242 204.333,270.163 204.333 L 268.030 204.333 267.842 205.417 C 267.670 206.412,265.333 225.412,265.333 225.821 C 265.333 225.919,262.696 226.000,259.474 226.000 L 253.614 226.000 253.798 225.083 C 253.899 224.579,255.264 213.442,256.832 200.333 C 258.400 187.225,259.757 176.162,259.848 175.750 C 260.011 175.008,260.070 175.000,265.771 175.000 L 271.530 175.000 270.280 185.083 M330.112 175.494 C 337.278 177.013,340.167 180.273,340.167 186.840 C 340.167 192.532,338.213 195.867,333.360 198.460 L 331.246 199.590 333.298 200.511 C 342.083 204.453,339.948 218.323,329.767 223.449 C 325.392 225.653,324.757 225.739,311.700 225.910 L 299.900 226.065 300.090 224.616 C 300.194 223.819,301.600 212.329,303.214 199.083 L 306.149 175.000 316.991 175.006 C 325.167 175.010,328.394 175.130,330.112 175.494 M130.238 176.428 C 130.793 176.983,130.845 178.427,131.000 197.762 L 131.167 218.500 134.250 223.109 C 137.593 228.106,137.989 229.344,136.667 230.667 C 135.744 231.589,60.385 231.733,59.074 230.814 C 57.456 229.681,57.972 227.982,61.500 222.825 L 64.667 218.195 64.667 197.909 C 64.667 176.792,64.681 176.579,66.105 176.000 C 67.697 175.353,129.576 175.766,130.238 176.428 M69.000 198.333 L 69.000 216.667 97.833 216.667 L 126.667 216.667 126.667 198.333 L 126.667 180.000 97.833 180.000 L 69.000 180.000 69.000 198.333 M101.086 181.844 C 105.285 182.367,110.824 186.616,112.826 190.849 C 120.916 207.949,99.409 223.289,85.970 210.004 C 76.296 200.440,81.972 183.335,95.359 181.713 C 97.490 181.454,98.067 181.468,101.086 181.844 M316.649 183.917 C 316.640 184.054,316.293 186.904,315.879 190.250 L 315.125 196.333 319.313 196.326 C 325.435 196.315,327.482 195.114,328.361 191.015 C 329.099 187.574,328.370 185.287,326.223 184.312 C 324.796 183.665,316.690 183.330,316.649 183.917 M94.167 185.467 C 89.324 187.003,88.586 188.615,91.851 190.528 C 94.403 192.023,97.333 191.456,97.333 189.467 C 97.333 188.660,98.449 187.667,99.356 187.667 C 100.595 187.667,101.529 185.608,100.473 185.202 C 99.569 184.856,95.565 185.024,94.167 185.467 M104.202 187.479 C 103.915 188.622,102.519 190.176,101.340 190.664 C 100.786 190.893,100.333 191.267,100.333 191.495 C 100.333 192.241,98.965 193.671,97.569 194.383 C 94.962 195.713,90.965 194.677,88.123 191.935 L 86.746 190.605 85.884 192.386 C 83.776 196.745,84.038 201.695,86.580 205.575 L 87.161 206.463 87.443 205.148 C 87.598 204.425,87.792 203.008,87.874 202.000 C 88.090 199.319,88.242 198.827,89.196 197.692 C 90.224 196.471,91.886 196.307,93.282 197.290 C 93.769 197.632,94.542 198.025,95.000 198.162 C 100.511 199.809,100.195 207.522,94.504 210.290 L 93.212 210.919 94.956 211.293 C 99.249 212.213,103.566 211.035,106.737 208.076 L 107.641 207.233 106.987 206.315 C 106.628 205.810,106.328 205.270,106.320 205.115 C 106.313 204.960,105.826 204.533,105.237 204.167 C 100.496 201.214,102.712 190.667,108.073 190.667 C 109.004 190.667,107.904 189.189,105.904 187.753 L 104.403 186.676 104.202 187.479 M108.762 194.036 C 105.431 194.999,104.787 200.248,107.843 201.526 C 108.627 201.853,109.198 202.394,109.488 203.084 L 109.932 204.141 110.466 202.343 C 111.307 199.511,111.022 193.562,110.051 193.697 C 109.931 193.713,109.351 193.866,108.762 194.036 M91.667 202.449 C 91.667 203.451,91.456 204.486,91.168 204.897 C 90.428 205.953,92.344 207.625,93.458 206.896 C 96.459 204.931,96.103 201.980,92.750 201.022 L 91.667 200.713 91.667 202.449 M313.542 209.417 C 313.225 212.213,312.879 215.063,312.773 215.750 L 312.581 217.000 317.301 217.000 C 324.681 217.000,326.720 215.609,327.220 210.236 C 327.664 205.471,326.067 204.352,318.810 204.341 L 314.120 204.333 313.542 209.417 M65.981 223.695 C 64.861 225.360,64.008 226.786,64.085 226.863 C 64.162 226.940,79.397 226.965,97.941 226.918 L 131.657 226.833 129.615 223.750 L 127.573 220.667 97.795 220.667 L 68.017 220.667 65.981 223.695 " stroke="none" fill="#046ce4" fill-rule="evenodd"></path><path id="path1" d="M167.333 200.000 C 167.333 249.778,167.336 250.000,168.000 250.000 C 168.664 250.000,168.667 249.778,168.667 200.000 C 168.667 150.222,168.664 150.000,168.000 150.000 C 167.336 150.000,167.333 150.222,167.333 200.000 M261.750 175.267 C 260.787 175.323,260.000 175.517,260.000 175.699 C 260.000 175.882,258.650 187.150,257.000 200.740 C 255.350 214.331,254.000 225.503,254.000 225.566 C 254.000 225.630,256.508 225.642,259.573 225.591 L 265.145 225.500 266.461 214.716 L 267.776 203.933 270.219 204.056 C 273.493 204.221,273.300 203.959,278.002 214.667 C 280.869 221.197,282.312 224.097,283.018 224.750 L 284.011 225.667 289.993 225.667 L 295.976 225.667 295.362 224.250 C 288.866 209.271,284.490 200.484,283.096 199.623 C 281.740 198.785,281.741 198.673,283.113 197.785 C 283.962 197.235,299.394 177.694,300.811 175.374 C 301.308 174.562,289.505 175.000,288.044 175.848 C 287.274 176.296,284.881 179.355,280.407 185.611 C 273.292 195.561,273.139 195.720,270.585 195.787 C 268.907 195.831,268.837 195.798,268.911 195.000 C 269.063 193.379,270.998 177.482,271.196 176.235 L 271.397 174.970 267.449 175.068 C 265.277 175.122,262.712 175.212,261.750 175.267 M306.333 175.138 C 306.333 175.258,304.983 186.363,303.333 199.815 C 301.683 213.267,300.333 224.586,300.333 224.970 C 300.333 225.875,319.601 226.051,324.115 225.187 C 339.180 222.305,344.254 204.203,331.213 199.865 C 330.739 199.708,331.146 199.382,332.940 198.485 C 344.214 192.845,342.351 178.333,330.005 175.620 C 328.303 175.246,306.333 174.798,306.333 175.138 M209.666 175.583 C 209.665 175.721,208.315 186.824,206.666 200.257 C 205.016 213.691,203.667 224.903,203.667 225.174 C 203.667 226.128,213.275 225.876,213.485 224.917 C 213.751 223.695,217.000 195.154,217.000 194.031 C 217.000 192.179,217.414 192.825,226.454 208.780 C 233.083 220.480,235.637 224.702,236.332 225.113 C 237.591 225.856,244.667 225.934,244.667 225.205 C 244.667 224.951,246.017 213.767,247.667 200.352 C 249.317 186.937,250.667 175.816,250.667 175.638 C 250.667 175.441,248.761 175.351,245.751 175.408 L 240.834 175.500 239.064 190.833 C 238.091 199.267,237.189 206.603,237.060 207.136 C 236.849 208.012,235.966 206.589,227.996 192.532 C 217.218 173.519,218.727 175.333,213.683 175.333 C 211.474 175.333,209.666 175.446,209.666 175.583 M65.552 176.610 C 65.051 177.163,65.000 179.103,65.000 197.603 L 65.000 217.987 61.667 223.016 C 58.259 228.158,57.946 228.965,58.852 230.259 L 59.371 231.000 97.786 231.000 C 127.219 231.000,136.294 230.906,136.600 230.600 C 137.710 229.490,137.095 227.772,133.833 222.876 L 130.667 218.123 130.667 197.728 C 130.667 177.778,130.652 177.319,130.000 176.667 C 129.000 175.666,66.455 175.611,65.552 176.610 M126.919 198.250 L 127.006 216.667 97.836 216.667 L 68.667 216.667 68.667 198.389 C 68.667 188.336,68.767 180.010,68.891 179.887 C 69.014 179.764,82.101 179.701,97.974 179.748 L 126.833 179.833 126.919 198.250 M94.088 182.171 C 81.422 184.923,76.934 201.174,86.358 210.163 C 92.968 216.468,103.685 216.249,109.762 209.686 C 120.900 197.656,110.097 178.693,94.088 182.171 M326.374 184.128 C 330.109 185.904,329.362 193.599,325.250 195.716 C 323.188 196.776,315.000 197.105,315.000 196.127 C 315.000 195.173,316.340 184.232,316.521 183.706 C 316.762 183.006,324.731 183.347,326.374 184.128 M101.141 185.342 C 101.636 185.835,100.775 187.304,99.755 187.707 C 98.079 188.369,97.870 188.543,97.620 189.478 C 96.850 192.356,93.057 192.453,90.533 189.659 C 89.082 188.053,89.069 187.900,90.314 187.014 C 93.128 185.010,99.779 183.983,101.141 185.342 M105.893 187.523 C 108.704 189.667,109.069 190.423,107.583 191.022 C 102.455 193.090,100.842 200.583,104.875 203.604 C 106.143 204.554,106.215 204.632,107.152 206.067 L 107.958 207.301 106.826 208.295 C 103.183 211.494,98.367 212.536,93.740 211.128 L 91.833 210.547 93.207 210.340 C 97.710 209.662,100.477 203.536,97.747 200.291 C 96.506 198.817,91.645 196.565,90.579 196.970 C 89.083 197.539,88.333 198.885,88.333 201.004 C 88.333 202.057,88.114 203.444,87.845 204.087 C 87.491 204.936,87.442 205.550,87.667 206.335 C 87.972 207.399,87.967 207.407,87.314 206.816 C 84.519 204.286,83.492 196.905,85.392 193.000 C 86.833 190.039,86.765 190.072,88.190 191.648 C 91.770 195.612,97.772 195.744,99.833 191.904 C 100.200 191.221,100.800 190.571,101.167 190.459 C 102.172 190.154,103.364 188.964,103.881 187.750 C 104.436 186.446,104.475 186.441,105.893 187.523 M111.009 195.370 C 111.514 197.475,111.277 201.023,110.505 202.917 C 109.875 204.462,109.336 204.767,109.328 203.583 C 109.321 202.534,108.967 202.088,107.938 201.830 C 104.016 200.846,105.567 193.743,109.717 193.680 C 110.507 193.668,110.643 193.846,111.009 195.370 M93.389 201.000 C 96.391 201.000,96.112 206.815,93.089 207.268 C 91.942 207.440,90.409 205.857,90.917 205.026 C 91.146 204.650,91.333 203.357,91.333 202.152 L 91.333 199.962 92.074 200.481 C 92.482 200.766,93.073 201.000,93.389 201.000 M325.098 204.799 C 329.324 206.884,327.690 215.456,322.787 216.925 C 321.997 217.161,319.497 217.333,316.852 217.333 L 312.280 217.333 312.462 216.417 C 312.561 215.912,312.874 213.475,313.157 211.000 C 313.439 208.525,313.760 205.924,313.870 205.220 L 314.069 203.940 318.951 204.058 C 322.882 204.152,324.080 204.297,325.098 204.799 M129.833 223.718 C 130.933 225.391,131.883 226.888,131.944 227.046 C 132.006 227.206,116.856 227.333,97.861 227.333 C 79.054 227.333,63.667 227.228,63.667 227.100 C 63.667 226.971,64.586 225.471,65.711 223.767 L 67.755 220.667 97.794 220.672 L 127.833 220.677 129.833 223.718 " stroke="none" fill="#f8f9fb" fill-rule="evenodd"></path><path id="path2" d="M168.829 200.000 C 168.829 227.592,168.868 238.879,168.917 225.083 C 168.965 211.287,168.965 188.712,168.917 174.917 C 168.868 161.121,168.829 172.408,168.829 200.000 M68.822 198.333 C 68.822 208.508,68.865 212.671,68.916 207.583 C 68.968 202.496,68.968 194.171,68.916 189.083 C 68.865 183.996,68.822 188.158,68.822 198.333 M114.411 198.333 C 114.411 198.975,114.479 199.237,114.563 198.917 C 114.647 198.596,114.647 198.071,114.563 197.750 C 114.479 197.429,114.411 197.692,114.411 198.333 M88.103 201.500 C 88.105 202.600,88.167 203.010,88.242 202.411 C 88.316 201.812,88.314 200.912,88.238 200.411 C 88.162 199.910,88.101 200.400,88.103 201.500 M267.876 204.264 C 267.787 204.409,268.265 204.475,268.940 204.411 C 271.001 204.216,271.244 204.079,269.603 204.039 C 268.743 204.017,267.966 204.119,267.876 204.264 M316.083 204.246 C 317.137 204.312,318.862 204.312,319.917 204.246 C 320.971 204.180,320.108 204.126,318.000 204.126 C 315.892 204.126,315.029 204.180,316.083 204.246 M304.937 225.916 C 307.744 225.972,312.244 225.972,314.937 225.916 C 317.630 225.860,315.333 225.814,309.833 225.814 C 304.333 225.815,302.130 225.860,304.937 225.916 M80.775 227.250 C 90.277 227.299,105.727 227.299,115.109 227.250 C 124.491 227.201,116.717 227.160,97.833 227.161 C 78.950 227.161,71.274 227.201,80.775 227.250 " stroke="none" fill="#5c9eec" fill-rule="evenodd"></path><path id="path3" d="M211.417 175.246 C 212.471 175.312,214.196 175.312,215.250 175.246 C 216.304 175.180,215.442 175.126,213.333 175.126 C 211.225 175.126,210.362 175.180,211.417 175.246 M240.884 175.250 C 240.798 175.387,242.252 175.460,244.114 175.412 C 250.242 175.253,250.909 175.124,245.936 175.062 C 243.243 175.028,240.969 175.112,240.884 175.250 M260.750 175.239 C 261.254 175.315,262.079 175.315,262.583 175.239 C 263.087 175.162,262.675 175.100,261.667 175.100 C 260.658 175.100,260.246 175.162,260.750 175.239 M325.417 175.230 C 325.737 175.314,326.262 175.314,326.583 175.230 C 326.904 175.146,326.642 175.077,326.000 175.077 C 325.358 175.077,325.096 175.146,325.417 175.230 M64.823 198.000 C 64.823 209.275,64.865 213.887,64.916 208.250 C 64.968 202.612,64.968 193.387,64.916 187.750 C 64.865 182.112,64.823 186.725,64.823 198.000 M97.747 179.916 L 126.661 180.004 126.751 198.335 L 126.842 216.667 126.838 198.250 L 126.833 179.833 97.833 179.831 L 68.833 179.828 97.747 179.916 M316.550 183.583 C 316.465 183.721,317.543 183.793,318.947 183.743 C 323.426 183.584,323.939 183.447,320.270 183.389 C 318.310 183.359,316.636 183.446,316.550 183.583 M108.333 185.438 C 108.333 185.495,108.821 185.983,109.417 186.521 L 110.500 187.500 109.521 186.417 C 108.608 185.407,108.333 185.180,108.333 185.438 M268.966 195.766 C 269.122 195.922,269.755 195.996,270.374 195.933 C 271.472 195.820,271.465 195.813,270.092 195.650 C 269.318 195.559,268.811 195.611,268.966 195.766 M81.095 198.167 C 81.098 199.083,81.163 199.419,81.239 198.912 C 81.316 198.405,81.314 197.655,81.235 197.245 C 81.156 196.835,81.093 197.250,81.095 198.167 M102.411 198.333 C 102.411 198.975,102.479 199.237,102.563 198.917 C 102.647 198.596,102.647 198.071,102.563 197.750 C 102.479 197.429,102.411 197.692,102.411 198.333 M85.333 209.438 C 85.333 209.495,85.821 209.983,86.417 210.521 L 87.500 211.500 86.521 210.417 C 85.608 209.407,85.333 209.180,85.333 209.438 M213.333 225.294 C 213.333 225.599,212.093 225.675,208.333 225.600 C 205.583 225.545,203.333 225.612,203.333 225.750 C 203.334 226.155,213.262 226.052,213.514 225.644 C 213.635 225.449,213.643 225.199,213.533 225.089 C 213.423 224.979,213.333 225.071,213.333 225.294 M259.500 225.667 L 253.833 225.858 259.397 225.929 C 262.825 225.973,265.040 225.872,265.167 225.667 C 265.280 225.483,265.326 225.365,265.270 225.404 C 265.213 225.444,262.617 225.562,259.500 225.667 M239.583 225.912 C 240.546 225.980,242.121 225.980,243.083 225.912 C 244.046 225.845,243.258 225.790,241.333 225.790 C 239.408 225.790,238.621 225.845,239.583 225.912 M288.417 225.914 C 289.837 225.977,292.162 225.977,293.583 225.914 C 295.004 225.852,293.842 225.801,291.000 225.801 C 288.158 225.801,286.996 225.852,288.417 225.914 M78.750 231.250 C 89.154 231.299,106.179 231.299,116.583 231.250 C 126.988 231.201,118.475 231.161,97.667 231.161 C 76.858 231.161,68.346 231.201,78.750 231.250 " stroke="none" fill="#84b4f1" fill-rule="evenodd"></path><path id="path4" d="M82.275 175.917 C 90.952 175.966,105.052 175.966,113.609 175.917 C 122.166 175.867,115.067 175.827,97.833 175.827 C 80.600 175.827,73.599 175.867,82.275 175.917 M130.823 197.833 C 130.823 209.017,130.865 213.543,130.917 207.893 C 130.968 202.242,130.968 193.092,130.916 187.559 C 130.865 182.027,130.823 186.650,130.823 197.833 M316.427 196.579 C 317.303 196.648,318.653 196.647,319.427 196.577 C 320.200 196.507,319.483 196.451,317.833 196.452 C 316.183 196.453,315.550 196.510,316.427 196.579 M91.440 202.333 C 91.440 203.525,91.501 204.012,91.574 203.417 C 91.648 202.821,91.648 201.846,91.574 201.250 C 91.501 200.654,91.440 201.142,91.440 202.333 M314.417 217.246 C 315.471 217.312,317.196 217.312,318.250 217.246 C 319.304 217.180,318.442 217.126,316.333 217.126 C 314.225 217.126,313.362 217.180,314.417 217.246 " stroke="none" fill="#2f81e4" fill-rule="evenodd"></path></g></svg>